<svg xmlns="http://www.w3.org/2000/svg" width="915.97" height="794.117" viewBox="0 0 915.97 794.117">
  <path id="icon_2-09" data-name="icon 2-09" d="M949.63,551.17v-61a12.125,12.125,0,0,0-.09-1.81c-7.63-73.29-46.43-140.9-109.25-190.36-64.07-50.48-149.38-78.27-240.22-78.27-92.18,0-170.34,25.4-232.3,75.51-57,46.09-97.37,112-116.75,190.75a17.41,17.41,0,0,0-.51,4.19v61c-61.06,5.9-108.51,47-108.51,96.7v53.29c0,50.4,48.78,92,111.07,97a139.63,139.63,0,0,0,53.09,92.36v90.24a17.52,17.52,0,0,0,35,.1V910.29a138.849,138.849,0,0,0,50.32,9.42h24a248.08,248.08,0,0,0,70.41,61.95A233.42,233.42,0,0,0,720.14,983c75.72-43.16,127.22-127.21,127.22-223.61V618.97a7.843,7.843,0,0,0-.06-1.19v-.57a6.784,6.784,0,0,0-.16-1.1c-.06-.36-.07-.43-.11-.64s-.16-.61-.24-.91-.13-.52-.21-.78-.17-.47-.26-.7-.21-.61-.34-.91-.18-.37-.27-.55c-.15-.33-.31-.66-.48-1a3.955,3.955,0,0,0-.31-.51c-.1-.17-.36-.62-.57-.92s-.28-.37-.42-.56-.38-.52-.58-.76-.4-.45-.6-.66-.34-.39-.53-.57-.5-.46-.75-.69l-.49-.43c-.26-.22-.55-.42-.83-.62s-.35-.27-.53-.39-.53-.33-.81-.49-.43-.27-.66-.39-.47-.23-.71-.34-.57-.28-.87-.41l-.6-.21c-.35-.13-.7-.27-1.06-.37-.18-.06-.37-.1-.55-.15q-.57-.15-1.17-.27h-.13c-17.62-3.25-41.74-12-67.53-23.13-69-29.66-150.07-75.82-151.18-76.45A17.52,17.52,0,0,0,595,503.6c-51.05,39.1-105.18,62.89-146,76.81C410.3,593.63,383.64,598,383.1,598a17.48,17.48,0,0,0-8.78,4.09,17.51,17.51,0,0,0-13.3,17V759.42a261.889,261.889,0,0,0,31.57,125.25h-1.07a104,104,0,0,1-50.32-12.93V573.05C341.2,441.77,459,335,603.74,335S866.29,441.77,866.29,573.05V984a17.52,17.52,0,0,0,35,0V573.05c0-150.6-133.5-273.13-297.59-273.13S306.16,422.45,306.16,573.05V840.42a104,104,0,0,1-19.25-60.37,17.349,17.349,0,0,0-1.67-7.41v-188a17.251,17.251,0,0,0,.31-3.23v-89.1c17.72-70.3,53.74-129,104.26-169.85,55.56-44.93,126.31-67.71,210.26-67.71,83,0,160.62,25.13,218.54,70.75,55.06,43.38,89.12,102.15,96,165.59V578a17.668,17.668,0,0,0,.17,2.2V781.05A17.521,17.521,0,0,0,932,798.57h2.327c68.17,0,123.64-43.72,123.64-97.46V647.86C1058,598.2,1010.62,557.12,949.63,551.17ZM396.06,759.42V631.3a493.763,493.763,0,0,0,57.79-15.37,578.045,578.045,0,0,0,85.77-36A524.708,524.708,0,0,0,607,538.37c14.7,8.2,43.71,24.09,77.06,40.81,27.69,13.88,58.37,28.32,86.35,39.43a403.152,403.152,0,0,0,42,14.39V759.42c0,121-93.37,219.4-208.13,219.4-54.82,0-104.74-22.46-142-59.11H488.9A43.37,43.37,0,0,0,527,942.52h49.71a43.338,43.338,0,1,0,0-86.675L527,855.85a43.39,43.39,0,0,0-40.78,28.82H433.41a226.37,226.37,0,0,1-37.35-125.25ZM1023,701.15c0,30.71-31.64,56.31-73.16,61.47V586.39c41.52,5.16,73.16,30.76,73.16,61.47ZM177,647.86c0-30.71,31.64-56.31,73.16-61.47V762.62C208.68,757.46,177,731.86,177,701.15Z" transform="translate(-142 -219.73)"/>
</svg>
