<svg xmlns="http://www.w3.org/2000/svg" width="980" height="980.51" viewBox="0 0 980 980.51">
  <g id="profile" transform="translate(-9.995 -9.745)">
    <g id="Group_1" data-name="Group 1" transform="translate(0 512)">
      <path id="Path_64" data-name="Path 64" d="M462.26-501.69c-69.38,7.09-121.32,21.47-178.24,49.45-50.02,24.53-85.67,49.83-126.3,89.12-41.78,40.82-72.26,82.8-98.13,135.31C35.44-178.36,20.68-129.87,12.44-72.57c-3.26,22.62-3.26,98.13,0,120.75,13.61,95.06,50.41,180.35,108.29,250.69,135.31,164.25,359.55,222.9,557.15,145.85C804.37,395.27,907.1,292.35,956.93,165.09,977.25,112.77,987.6,62.56,989.7,4.1c4.6-132.63-44.66-260.46-137.42-356.29-42.17-43.51-83.37-73.6-137.04-99.85-48.3-23.77-92.76-37.76-146.62-46C549.28-500.92,478.94-503.41,462.26-501.69Zm101.58,34.12c99.47,14.76,190.89,60.56,260.84,130.71,72.45,72.83,116.91,163.1,131.48,267.17,3.64,26.64,3.07,95.26-.96,121.7-11.88,77.24-41.78,149.68-86.63,209.67-7.48,10.16-17.63,22.62-22.62,27.98l-8.82,9.58-2.11-6.32c-10.35-28.94-31.62-61.91-56.92-88.55-52.9-55.58-121.89-89.31-210.44-102.73-32.2-4.98-103.88-4.98-136.08,0C348.21,114.29,284,143.8,231.87,193.44,220.97,204,206.4,220.1,199.5,229.11c-11.5,15.53-29.71,48.3-35.07,63.44l-2.3,6.71-8.82-9.58c-4.98-5.37-15.14-17.82-22.62-27.98C42.15,143.24,16.47-12,61.89-152.68A461.457,461.457,0,0,1,359.53-449.94c32.2-10.54,59.41-15.91,105.6-21.08C479.13-472.55,545.44-470.25,563.84-467.57Z"/>
      <path id="Path_65" data-name="Path 65" d="M465.14-322.87a189.675,189.675,0,0,0-56.54,22.04c-18.59,10.92-47.34,39.87-58.84,59.61-34.11,58.07-32.2,129.56,5.37,186.1,32.96,49.83,91.8,79.54,151.22,76.86,26.83-1.34,46.57-6.52,70.91-18.4a170.074,170.074,0,0,0,77.81-77.81c14.18-28.75,17.63-44.08,17.63-77.62,0-32.77-3.45-48.3-16.67-75.7C621.34-299.49,541.99-338.97,465.14-322.87Z"/>
    </g>
  </g>
</svg>
