<svg xmlns="http://www.w3.org/2000/svg" xmlns:xlink="http://www.w3.org/1999/xlink" width="149.493" height="170.598" viewBox="0 0 149.493 170.598">
  <defs>
    <filter id="Shadow_06dp" x="0" y="0" width="149.493" height="149.493" filterUnits="userSpaceOnUse">
      <feOffset dy="6" input="SourceAlpha"/>
      <feGaussianBlur stdDeviation="5" result="blur"/>
      <feFlood flood-opacity="0.141"/>
      <feComposite operator="in" in2="blur"/>
      <feComposite in="SourceGraphic"/>
    </filter>
  </defs>
  <g id="Group_278" data-name="Group 278" transform="translate(-187 -266)">
    <text id="Charter_a_vehicle" data-name="Charter a vehicle" transform="translate(262 431.598)" fill="#cc28bc" font-size="19" font-family="Roboto-Regular, Roboto" letter-spacing="0.01em" opacity="0.9"><tspan x="-72.195" y="0">Charter a vehicle</tspan></text>
    <g transform="matrix(1, 0, 0, 1, 187, 266)" filter="url(#Shadow_06dp)">
      <path id="Shadow_06dp-2" data-name="Shadow / 06dp" d="M2,0H117.493a2,2,0,0,1,2,2V117.493a2,2,0,0,1-2,2H2a2,2,0,0,1-2-2V2A2,2,0,0,1,2,0Z" transform="translate(15 9)" fill="#cc28bc"/>
    </g>
    <g id="Group_267" data-name="Group 267" transform="translate(-3.072 -6)">
      <g id="Group_260" data-name="Group 260" transform="translate(229.072 318)">
        <g id="Group_238" data-name="Group 238" transform="translate(0 23.079)">
          <path id="Path_2543" data-name="Path 2543" d="M327.474,410.578c1.035-1.335.774-4.436.6-5.642s-1.162-.644-1.12-1.466.13-3.185-.3-3.489a5.462,5.462,0,0,0-.821-.473c-.6-1.247-4.693-4.263-4.693-4.263v-.474c-6.59-.732-21.331-1.733-25.534-.732s-13.827,6.2-13.827,6.2c-10.046.19-14.926,3.455-14.926,3.455s.131.515-1,1.549a4.329,4.329,0,0,0-1.012,3.049l.69,3.185c.351.293,4.959,1.81,6.286,1.649a6.058,6.058,0,0,1-.213-1.582,6.2,6.2,0,1,1,12.405,0c0,.153-.012.3-.023.452,4.027.009,17.433.041,26.925.036-.012-.163-.024-.324-.024-.489a6.2,6.2,0,1,1,12.405,0c0,.062-.007.122-.011.182A19.484,19.484,0,0,0,327.474,410.578Z" transform="translate(-264.84 -393.618)" fill="#fff"/>
          <path id="Path_2544" data-name="Path 2544" d="M275.783,403.065a5.17,5.17,0,1,0,5.122,5.622,3.961,3.961,0,0,0,.049-.451A5.17,5.17,0,0,0,275.783,403.065Z" transform="translate(-262.815 -390.304)" fill="#fff"/>
          <path id="Path_2545" data-name="Path 2545" d="M304.866,403.065a5.169,5.169,0,0,0-5.169,5.171c0,.167.036.323.05.486A5.142,5.142,0,0,0,310,408.565c.009-.113.034-.219.034-.33A5.169,5.169,0,0,0,304.866,403.065Z" transform="translate(-252.614 -390.304)" fill="#fff"/>
        </g>
        <path id="Path_2541" data-name="Path 2541" d="M67.934,481.2a3.435,3.435,0,0,0-3.244-1.86H42.54a3.429,3.429,0,0,0-3.248,1.9,4.289,4.289,0,0,0-.444,1.8V494.1a4.294,4.294,0,0,0,.444,1.8,3.425,3.425,0,0,0,3.169,1.9H64.69a4.341,4.341,0,0,0,1.8-.446,3.431,3.431,0,0,0,1.9-3.246V482.97A4.186,4.186,0,0,0,67.934,481.2Zm-27.209,1.551a2.187,2.187,0,0,1,.43-1.021,1.638,1.638,0,0,1,1.384-.544H64.69a1.56,1.56,0,0,1,1.6.852,2.323,2.323,0,0,1,.214.667c.033.188.023.268.03.268v.057H40.694A1.727,1.727,0,0,1,40.725,482.747ZM66.537,494.1a1.559,1.559,0,0,1-.875,1.6,2.429,2.429,0,0,1-.691.215c-.194.034-.281.026-.281.033H42.54a1.563,1.563,0,0,1-1.6-.875,2.472,2.472,0,0,1-.213-.691c-.034-.192-.027-.277-.033-.277V486.72H66.537Z" transform="translate(2.235 -479.335)" fill="#fff"/>
      </g>
    </g>
  </g>
</svg>
