<svg xmlns="http://www.w3.org/2000/svg" width="731" height="878.91" viewBox="0 0 731 878.91">
  <defs>
    <style>
      .cls-1 {
        fill: red;
      }
    </style>
  </defs>
  <g id="icon_2-06" data-name="icon 2-06" transform="translate(-216 -160.54)">
    <path id="Path_20" data-name="Path 20" class="cls-1" d="M582.57,1039.45C783.5,1039.45,947,876,947,675.06a363.1,363.1,0,0,0-98.52-248.92c29.21-48,64.32-113.24,64.32-149.38a116.217,116.217,0,1,0-232.435,0c.005,13.69,5.005,31.56,12.9,51.09A364,364,0,0,0,396.35,362,97,97,0,0,0,216,411.4c0,24.85,19.89,66,40.26,101.63a362.211,362.211,0,0,0-38.07,162C218.17,876,381.64,1039.45,582.57,1039.45ZM372.82,692.35c2.16,37.12,11.23,75.21,26.86,113.42-34.4,13.63-65.46,31-91.79,51.62a327.71,327.71,0,0,1-54.67-165ZM426.1,571.46c42.93,14,90.12,22.53,139.17,24.9v61.4H407.47C409.4,627.82,416.17,598.87,426.1,571.46Zm331.58,86.3H599.87V597c49.3-.54,97.21-7.32,141.26-19.64a309.46,309.46,0,0,1,16.55,80.4Zm-22.59,131a551.739,551.739,0,0,0-135.22-18V692.35H757.68c-2.18,33.72-10.53,66.09-22.59,96.37ZM407.46,692.35H565.27v79c-46.72,2.26-91.73,10.12-133,23C419,762.45,409.77,728.17,407.46,692.35ZM565.27,806V978.8C533.89,949.13,482.7,894.63,447,825.89A503.285,503.285,0,0,1,565.27,806Zm34.6,172.78V805.3a520,520,0,0,1,120.84,15.35C685,891.77,632,948.31,599.87,978.75Zm0-416.34V369.06c34.56,33.21,93.08,96.84,128.5,176-40.05,10.84-83.58,16.83-128.5,17.35Zm-34.6-193.25V561.75c-44.47-2.28-87.11-9.92-125.91-22.31C475,463,531.5,401.6,565.27,369.16Zm-236.76,516c.11-.08.22-.13.32-.21,24.27-19.1,53.11-35.12,85.19-47.68,15.39,30.63,34.91,61.18,58.44,91.22A688.6,688.6,0,0,0,539.37,1002,329.71,329.71,0,0,1,328.51,885.13ZM625.78,1002a689.734,689.734,0,0,0,66.9-73.57c25.24-32.22,45.88-65,61.74-97.9C788,841.91,818.55,856.88,844.65,875a329.9,329.9,0,0,1-218.87,127ZM864.22,846.5c-28-19.4-60.43-35.44-96-47.69,13.93-35.88,22-71.6,24.08-106.46H911.9A327.61,327.61,0,0,1,864.22,846.5ZM792.33,657.76c-1.73-29.76-7.9-60.2-18.31-90.89,36.36-13.08,69.36-30.18,97.42-50.81a327.491,327.491,0,0,1,40.49,141.7Zm85.85-381c0,24.11-26.59,76.54-55.28,124.63-6.13,10.27-12.34,20.33-18.42,29.88q-4,6.32-7.92,12.3c-7.65-11.71-15.72-24.52-23.68-37.73-11.87-19.71-23.51-40.31-33.21-59.55-14.56-28.86-24.74-54.62-24.74-69.53a81.628,81.628,0,1,1,163.255,0Zm-163.9,96c27.22,52,61.86,102.76,68,111.71a17.3,17.3,0,0,0,28.47,0c2.45-3.55,9.4-13.7,18.58-27.89a331.545,331.545,0,0,1,23.71,30.07c-26.08,19.56-57.1,35.73-91.52,48-16.59-38.23-39.62-76.6-68.79-114.26a701.7,701.7,0,0,0-64.26-71.94,326.793,326.793,0,0,1,85.81,24.27ZM536.75,348.44a701.556,701.556,0,0,0-64.31,71.95c-27.39,35.33-49.35,71.28-65.67,107.15a363.753,363.753,0,0,1-35.69-17C397.2,464.65,410,432.17,410,411.4a97,97,0,0,0-1.46-16.4A327.66,327.66,0,0,1,536.75,348.44ZM313,349a62.46,62.46,0,0,1,62.39,62.39,38.311,38.311,0,0,1-1.21,8.25c-3.23,13.8-13.24,38.68-32.33,72.76q-7.79,13.9-17.66,29.82-5.3,8.5-11.19,17.55-9.42-14.385-17.22-27.38c-7.53-12.5-14-24-19.51-34.49-18.13-34.51-25.67-57.54-25.67-66.51A62.47,62.47,0,0,1,313,349ZM277.9,548.88c10.25,16.23,18.38,28.12,20.86,31.71a17.3,17.3,0,0,0,28.47,0c.62-.9,12-17.46,26.21-40.39a400.709,400.709,0,0,0,40.31,19.3c-12,33.18-19,66.11-20.9,98.25H253.22a327.24,327.24,0,0,1,24.65-108.86Z"/>
    <path id="Path_21" data-name="Path 21" class="cls-1" d="M297.06,448.89a45.78,45.78,0,1,0-29.9-42.9,45.78,45.78,0,0,0,29.9,42.9Zm15.91-64a21.12,21.12,0,0,1,21.1,21.1,20.442,20.442,0,0,1-.25,3,21.12,21.12,0,0,1-17.77,17.81,20.866,20.866,0,0,1-3.08.25,21.1,21.1,0,1,1,0-42.2Z"/>
    <path id="Path_22" data-name="Path 22" class="cls-1" d="M796.56,323.93a53.89,53.89,0,1,0-53.89-53.887,53.89,53.89,0,0,0,53.89,53.887Zm0-83.06a29.18,29.18,0,1,1-29.18,29.18,29.18,29.18,0,0,1,29.18-29.18Z"/>
  </g>
</svg>
