<svg xmlns="http://www.w3.org/2000/svg" width="846.678" height="894.66" viewBox="0 0 846.678 894.66">
  <defs>
    <style>
      .cls-1 {
        fill: red;
      }
    </style>
  </defs>
  <g id="icon_2-03" data-name="icon 2-03" transform="translate(-208.96 -167.1)">
    <path id="Path_6" data-name="Path 6" class="cls-1" d="M226.32,906.3h532a12.236,12.236,0,0,0,1.71-.08l.72-.11a6.311,6.311,0,0,0,1-.14l.82-.2c.28-.07.56-.13.82-.21s.54-.18.8-.28.54-.18.8-.29.5-.22.74-.34.54-.24.8-.38.47-.27.7-.41.51-.29.75-.46.48-.34.72-.52.44-.31.64-.48.55-.47.82-.72.28-.24.41-.37l99.24-97.53,19.64,50.15-1.63.64a12.44,12.44,0,0,0-7.47,14.84,44.224,44.224,0,0,0,1.58,4.76l61.55,157.18c7.23,18.48,25.2,30.41,45.78,30.41h0a52.374,52.374,0,0,0,19.175-3.638l14.475-5.672c26.05-10.2,39.28-38.8,29.51-63.76L990.86,831.51a45.819,45.819,0,0,0-2.08-4.56,12.43,12.43,0,0,0-15.56-5.83l-1.63.64L949.75,766c60.76-44.74,86.62-126.37,57.83-199.89a170.75,170.75,0,0,0-58.31-75.93V184.51a17.42,17.42,0,0,0-17.41-17.41H399.21a7.548,7.548,0,0,0-1,.05c-.34.05-.58.08-.86.12s-.56.07-.83.13-.59.13-.89.2l-.76.2-.86.29c-.25.09-.51.18-.75.28s-.53.23-.8.36l-.75.36c-.25.13-.5.29-.74.43l-.72.44c-.26.17-.51.36-.76.54s-.42.3-.62.47-.56.49-.84.75c-.13.12-.27.22-.39.34L214.12,342.6h-.05c-.32.32-.62.66-.92,1-.08.1-.17.18-.25.28a16.079,16.079,0,0,0-1,1.36c-.16.24-.29.48-.44.72s-.31.49-.44.74-.25.51-.37.77-.26.51-.37.77-.17.47-.26.71-.23.59-.32.9-.11.43-.17.64c-.1.37-.2.74-.27,1.12s-.18,1-.24,1.55v.53c0,.4-.06.8-.06,1.21V888.89A17.4,17.4,0,0,0,226.32,906.3Zm514.62-34.82H243.73v-499H408.86V641.2l45.92-31.87L490,641.2,524.58,608l53.79,33.2V372.43H740.94V495.65c-56.22,45.62-79.31,124.11-51.53,195a171,171,0,0,0,51.53,70.71ZM940.31,741.87q-5,4-10.37,7.64-5.21,3.5-10.78,6.58l-1.86,1a144.425,144.425,0,0,1-34,13q-6.15,1.51-12.38,2.49T858.12,774q-4,.27-8.12.32h-1.5a146,146,0,0,1-72.76-19.23,144.518,144.518,0,0,1-34.83-27.9,146.033,146.033,0,1,1,199.4,14.68Zm8.26,89.3-35.84,14-.13-.34-20.13-51.4a167.082,167.082,0,0,0,35.83-14l20.13,51.4Zm65.26,198.12L999.36,1035a27.669,27.669,0,0,1-10.11,1.93h0c-10.27,0-19.15-5.73-22.62-14.6L908.34,873.44a12.242,12.242,0,0,0,1.88-.54l59-23.1a12.526,12.526,0,0,0,1.75-.9l58.29,148.86C1034,1010,1027.1,1024.09,1013.83,1029.29ZM775.77,847.37V783.19a170.251,170.251,0,0,0,50.41,14.63ZM848.45,457.5a170.088,170.088,0,0,0-62.221,11.8c-3.589,1.4-7.029,2.942-10.459,4.542V362.17L914.45,221.76V470.61a171.74,171.74,0,0,0-66-13.11ZM751.08,337.61h-152l133-135.69h153ZM407,201.92H561.19L423.44,337.61H268.88Z"/>
    <path id="Path_7" data-name="Path 7" class="cls-1" d="M448,730.9H264.82a6.22,6.22,0,0,0-6.22,6.21V842.17a6.22,6.22,0,0,0,6.22,6.22H448a6.21,6.21,0,0,0,6.22-6.22V737.11A6.21,6.21,0,0,0,448,730.9ZM441.74,836H271V743.33H441.7Z"/>
    <rect id="Rectangle_19" data-name="Rectangle 19" class="cls-1" width="9.77" height="71.67" transform="translate(281.39 754.26)"/>
    <rect id="Rectangle_20" data-name="Rectangle 20" class="cls-1" width="8.27" height="71.67" transform="translate(422.11 754.26)"/>
    <rect id="Rectangle_21" data-name="Rectangle 21" class="cls-1" width="9.77" height="71.67" transform="translate(298.23 754.26)"/>
    <rect id="Rectangle_22" data-name="Rectangle 22" class="cls-1" width="9.77" height="71.67" transform="translate(335.44 754.26)"/>
    <rect id="Rectangle_23" data-name="Rectangle 23" class="cls-1" width="8.27" height="71.67" transform="translate(370.02 754.26)"/>
    <rect id="Rectangle_24" data-name="Rectangle 24" class="cls-1" width="8.27" height="71.67" transform="translate(384.15 754.26)"/>
    <rect id="Rectangle_25" data-name="Rectangle 25" class="cls-1" width="13.68" height="71.67" transform="translate(351.67 754.26)"/>
    <rect id="Rectangle_26" data-name="Rectangle 26" class="cls-1" width="15.78" height="71.67" transform="translate(312.96 754.26)"/>
    <rect id="Rectangle_27" data-name="Rectangle 27" class="cls-1" width="15.78" height="71.67" transform="translate(399.26 754.26)"/>
    <path id="Path_8" data-name="Path 8" class="cls-1" d="M914.45,532.42a116.61,116.61,0,0,0-138.68,5.2c-2.95,2.37-5.78,4.87-8.46,7.49s-5.26,5.41-7.68,8.28A116.938,116.938,0,0,0,740.2,670.83c.24.61.5,1.21.74,1.82a115.55,115.55,0,0,0,105.72,72.07h1.86c3.78,0,7.54-.2,11.28-.56a118.9,118.9,0,0,0,12.59-2,116.635,116.635,0,0,0,14.5-4.06c1.34-.47,2.68-.94,4-1.46a116.543,116.543,0,0,0,17.33-8.51c2.4-1.43,4.75-2.93,7-4.53,1.2-.83,2.38-1.7,3.55-2.59a112.308,112.308,0,0,0,19.56-18.82,116.291,116.291,0,0,0,10.9-15.8A120.317,120.317,0,0,0,955.06,675a115.56,115.56,0,0,0,1.73-89,119.386,119.386,0,0,0-7.52-15.7,115.5,115.5,0,0,0-34.82-37.88Zm0,32.57a91.661,91.661,0,0,1,0,126.77l-3,3a91.381,91.381,0,0,1-29.64,18.8c-1.34.53-2.68,1-4,1.48a90.682,90.682,0,0,1-29.26,4.84h-1.16A91.428,91.428,0,1,1,914.48,565.1Z"/>
  </g>
</svg>
