<svg xmlns="http://www.w3.org/2000/svg" width="773.289" height="840.09" viewBox="0 0 773.289 840.09">
  <defs>
    <style>
      .cls-1 {
        fill: red;
      }
    </style>
  </defs>
  <g id="icons-01" transform="translate(-208.5 -143.44)">
    <path id="Path_38" data-name="Path 38" class="cls-1" d="M923.74,836.46V799.69a61.38,61.38,0,0,0-61.32-61.32H611.53V723.15a16.41,16.41,0,1,0-32.81,0v15.22H327.82a61.38,61.38,0,0,0-61.31,61.32v36.77a74.41,74.41,0,1,0,32.81,0V799.68a28.55,28.55,0,0,1,28.5-28.51h250.9v65.28a74.44,74.44,0,1,0,32.81,0V771.18H862.42a28.54,28.54,0,0,1,28.51,28.51v36.77a74.45,74.45,0,1,0,32.81,0Zm-599.2,72.59a41.63,41.63,0,1,1-41.63-41.63A41.63,41.63,0,0,1,324.54,909.05Zm312.21,0a41.63,41.63,0,1,1-41.63-41.63,41.63,41.63,0,0,1,41.63,41.63Zm270.58,41.64a41.714,41.714,0,1,1,.04,0Zm0,0"/>
    <path id="Path_39" data-name="Path 39" class="cls-1" d="M595.12,143.44c-142,0-257.46,115.51-257.46,257.47,0,80.86,37.47,153.11,95.95,200.35.42.41.85.83,1.31,1.2a260.1,260.1,0,0,0,40.66,26.6v-.17a257,257,0,0,0,263-14.3l.07.08q8.52-5.74,16.66-12.21a16.646,16.646,0,0,0,1.31-1.2c58.48-47.24,96-119.49,96-200.35,0-142-115.5-257.47-257.47-257.47Zm0,482.12A223.43,223.43,0,0,1,463.85,583.1c17.18-55.23,70.75-94.31,131.27-94.31s114.1,39.08,131.29,94.31a223.469,223.469,0,0,1-131.29,42.46Zm-59.7-224.65a55.08,55.08,0,1,1,0,.02ZM753.1,560.48A166.659,166.659,0,0,0,702.3,493a171,171,0,0,0-51.82-28,87.87,87.87,0,1,0-117.34,2.38A170.182,170.182,0,0,0,488,493a166.45,166.45,0,0,0-50.79,67.47A224,224,0,0,1,370.53,400.9c0-123.87,100.77-224.65,224.64-224.65S819.78,277,819.78,400.91A224,224,0,0,1,753.1,560.48Zm0,0"/>
    <path id="Path_40" data-name="Path 40" class="cls-1" d="M611.53,682.54a16.41,16.41,0,1,1-16.41-16.41A16.41,16.41,0,0,1,611.53,682.54Zm0,0"/>
  </g>
</svg>
