<svg xmlns="http://www.w3.org/2000/svg" width="1026.018" height="616.658" viewBox="0 0 1026.018 616.658">
  <defs>
    <style>
      .cls-1 {
        fill: indigo;
      }
    </style>
  </defs>
  <path id="icon_3-03" data-name="icon 3-03" class="cls-1" d="M1092.09,663c-38.38-77.18-146-125.34-222.17-81.05-29.51-45.37-60.51-89.59-94.55-131.2,2.44.69,4.87,1.42,7.34,1.94,27,5.63,64.63,10.5,85.86-11,17.73-17.92,17.22-59,14.42-82.27-3.83-31.86-42-37.31-68.12-39.84-29.63-2.87-52.88,8-74.47,28.08-2.36,2.2-5.17,7.82-6.73,13.54a98.479,98.479,0,0,0-32.51-18.5c1.28-7.3-1.24-15-9.73-19.35-19-9.82-36.16-20.49-56.77-26.66-10.82-3.23-19.58,3.87-23.42,13.3-11,27.07-11.5,41.39,12.57,59.59,16.78,12.68,40,3.25,58.32,6.94,35.14,7.07,15,20.18-8.51,23.57C600.85,410.57,495.89,445,464.25,520c-14.45-45.39-54.13-46.19-104-47.69s-99-7.22-122.25,37.78c-51.67-6.42-111.68,4.36-134.74,56.5-12.19,27.59,2.8,48.22,24.65,50.18C90,662.66,79,742.59,92.53,790.86c22.55,80.55,115.9,134.82,197,118.93,75.68-14.82,129.33-79.74,134-152.7,67.73,45.27,210.6,41.14,270-10.15,42.85-37,61.3-85.64,71-140.36,6.43-36,20-80.16,17.2-119.82,16.3,31.64,34.84,62.67,52.08,92.94,3.13,5.51,6.35,11.09,9.58,16.66-55.69,36.07-71.43,132.6-61,191.23C800.79,890,920.94,930.21,1009.51,900,1111.06,865.41,1136.34,752,1092.09,663Zm-733.9,49.14c-18.22-.2-37.32,3.21-55,5.49-11.84,1.53-23.53,3.13-34.94,5.81,18.44-18.1,34.49-39.32,49-60.94a149.23,149.23,0,0,1,38.06,43.63c1.13,1.96,1.92,3.99,2.88,5.99ZM271.33,854.57c-58.27,6.53-110.75-36-126.4-90-10.24-35.32-.16-74.19,22.41-102.26,11.79-14.66,26.95-24.61,40.09-37,34.89,1.95,67.53,10.26,95.2,27-20.21,25.92-37.59,54.26-59.72,78.76a5.76,5.76,0,0,0-1.44,3,3.85,3.85,0,0,0-.17,1.12v.12a6.6,6.6,0,0,0,5.55,6.91c21.8,2.59,44,.29,65.86-.31,17.32-.48,36-.73,52.91-5.57C373.62,791.31,327,848.33,271.33,854.57Zm696.18-3.52c-70.77,17.23-130.23-40.5-131.93-108-1-39.54,18-67.55,38.82-95.68,20.71,32.45,43.31,64,68.55,91.14,8.49,9.14,23.91-2.75,17.24-13.3-20.28-32-40.26-64.48-60.53-96.72C1037.2,583.25,1134,810.51,967.51,851.05Z" transform="translate(-86.981 -295.899)"/>
</svg>
