<svg xmlns="http://www.w3.org/2000/svg" width="1035.983" height="556.312" viewBox="0 0 1035.983 556.312">
  <defs>
    <style>
      .cls-1 {
        fill: indigo;
      }
    </style>
  </defs>
  <path id="icon_3-02" data-name="icon 3-02" class="cls-1" d="M1075.49,628.63C1035.55,581.86,975.41,587.75,919.3,584a28.115,28.115,0,0,0-2.23-3.42C846.22,492.12,769.56,415,657.71,384.09c-85.18-23.51-200.25-30.68-289.88-2.67-15.4,2.36-29.86,6.37-42.59,13-63.88,33.18-73.1,113.18-107.86,170.77-30.85-8.72-67.51,9.27-90.16,29.28-31,27.35-42,72.33-44.83,111.7-4.79,66.49,34.29,165.36,113,146.2,27.22,57.69,100.15,86.52,156.65,52.87,22.28-13.28,39.82-34.73,51.41-59.17,79.23,6.43,157.87,17,237,24,65.95,5.84,148.48,14.36,209.23-17.63,16.48,30.8,47.68,52.42,87.82,55.39,54.1,4,98.49-32.34,112.81-82.16,17.28,5.8,34.51,2.92,51.69-3.08,8.3-2.9,17.07-11,15.87-20.85C1110.41,740.31,1118.19,678.63,1075.49,628.63ZM541.25,441.93c114.63,7.4,196.1,47,273.48,120.26-76.54,7.88-153.05-7.69-229.68-10-14.86-.45-29.67-.31-44.46,0C544.66,518,548.52,476.13,541.25,441.93ZM336.78,841c-20.73,24.13-45.15,23.64-70.21,6.34-61.79-42.67,14.6-102.89,59.79-107.85a20.37,20.37,0,0,0,6.89-2c11.63,3.07,21.26,9.26,25.83,27.39C365.49,790.25,353.23,821.82,336.78,841ZM316.24,556.71c17.2-41.86,37.67-82.26,60.34-121.43,37.61-6.69,83.74-1.33,120.21,2.66-.29,17.93,3.61,36.11,5.3,53.95,2,20.47,2.63,41,4.67,61.48C443.2,556.37,380,562.35,316.24,556.71ZM954,852c-80,18.61-81.12-114.65.65-117.29a17.2,17.2,0,0,0,1.79-.38c25.56,8.51,42.42,26.45,42.89,56.9C999.74,819.78,981.76,845.55,954,852Z" transform="translate(-81.997 -363.261)"/>
</svg>
