<svg xmlns="http://www.w3.org/2000/svg" xmlns:xlink="http://www.w3.org/1999/xlink" width="149.493" height="171.307" viewBox="0 0 149.493 171.307">
  <defs>
    <filter id="Shadow_06dp" x="0" y="0" width="149.493" height="149.493" filterUnits="userSpaceOnUse">
      <feOffset dy="6" input="SourceAlpha"/>
      <feGaussianBlur stdDeviation="5" result="blur"/>
      <feFlood flood-opacity="0.141"/>
      <feComposite operator="in" in2="blur"/>
      <feComposite in="SourceGraphic"/>
    </filter>
  </defs>
  <g id="Group_274" data-name="Group 274" transform="translate(-39 -471)">
    <g transform="matrix(1, 0, 0, 1, 39, 471)" filter="url(#Shadow_06dp)">
      <rect id="Shadow_06dp-2" data-name="Shadow / 06dp" width="119.493" height="119.493" rx="2" transform="translate(15 9)" fill="#cc28bc"/>
    </g>
    <text id="Contact_us" data-name="Contact us" transform="translate(114 637.307)" fill="#cc28bc" font-size="19" font-family="Roboto-Regular, Roboto" letter-spacing="0.01em" opacity="0.9"><tspan x="-46.532" y="0">Contact us</tspan></text>
    <g id="Group_268" data-name="Group 268" transform="translate(-62.013 161.209)">
      <path id="Path_2555" data-name="Path 2555" d="M177.34,382.75c-.088,2.742-3.394,4.8-7.768,4.8s-7.687-2.06-7.769-4.807c-3.919,1.277-8.119,2.985-9.437,4.762-1.868,2.521-1.26,12.483-1.26,12.483h36.907s.607-9.963-1.26-12.483C185.44,385.731,181.253,384.024,177.34,382.75Z" transform="translate(0 0.986)" fill="#fff"/>
      <path id="Path_2556" data-name="Path 2556" d="M182.015,368.148A16.721,16.721,0,0,1,176,381.081c.076.369.135.664.188.929l0,.006.749.244c1.848.6,3.429,1.195,4.792,1.786,3.107-.04,5.625-1.413,5.625-3.106,0-.112-.59-2.976-.59-2.976A13.768,13.768,0,0,0,192.5,366.6c0-6.846-4.882-11.813-10.9-11.813a10.433,10.433,0,0,0-5.375,1.488A14.5,14.5,0,0,1,182.015,368.148Z" transform="translate(0.882)" fill="#fff"/>
      <path id="Path_2557" data-name="Path 2557" d="M197.227,384.551c-1.207-1.628-5.017-3.193-8.609-4.369-.082,1.984-1.924,3.583-4.625,4.222a9.221,9.221,0,0,1,2.845,2.266c1.344,1.814,1.649,6.118,1.668,9.443h9.888S198.956,386.884,197.227,384.551Z" transform="translate(1.164 0.896)" fill="#fff"/>
      <path id="Path_2558" data-name="Path 2558" d="M163.755,380.392s-.637,3.093-.637,3.214c0,1.854,2.8,3.356,6.223,3.356s6.223-1.5,6.223-3.356c0-.12-.638-3.214-.638-3.214a14.856,14.856,0,0,0,6.186-12.264c0-7.39-5.271-12.751-11.771-12.751s-11.771,5.361-11.771,12.751A14.861,14.861,0,0,0,163.755,380.392Z" transform="translate(0.231 0.021)" fill="#fff"/>
    </g>
  </g>
</svg>
