<svg xmlns="http://www.w3.org/2000/svg" width="824.614" height="864.023" viewBox="0 0 824.614 864.023">
  <defs>
    <style>
      .cls-1 {
        fill: indigo;
      }
    </style>
  </defs>
  <g id="icon_2-04" data-name="icon 2-04" transform="translate(-187.506 -182.357)">
    <path id="Path_9" data-name="Path 9" class="cls-1" d="M200.23,216.64l139.82,43,80.37,200.15a17.42,17.42,0,0,0-4,6.67l-39.29,120.4a17.41,17.41,0,0,0,.43,12l109.36,268.2a137.668,137.668,0,0,0-6.3,41.27c0,76.12,61.92,138.05,138,138.05s138.05-61.93,138.05-138.05a137.35,137.35,0,0,0-4.57-35.22l249.4-106.35a17.471,17.471,0,1,0-13.71-32.14L739,840.76a138.827,138.827,0,0,0-18.05-25.06L955,718.83a12.48,12.48,0,0,0,6.75-16.3L840.62,409.85a12.48,12.48,0,0,0-16.3-6.75l-24.68,10.21L714,206.45a12.49,12.49,0,0,0-16.3-6.76L475.17,291.81a12.47,12.47,0,0,0-6.76,16.3L554,515l-28.66,11.86a12.47,12.47,0,0,0-6.75,16.3l94.08,227.32a137.924,137.924,0,0,0-28.2,4.14L369.36,238.84a17.5,17.5,0,0,0-11.08-10.19l-147.79-45.4a17.47,17.47,0,1,0-10.26,33.39Zm296,93.45,61.62-25.5,23.79,57.47L657.9,310.5,634.13,253l61.62-25.51,80.64,194.85L576.88,504.93ZM618.66,805.23c2.89,0,5.75.15,8.58.38a102.389,102.389,0,0,1,30,7.11c.94.39,1.88.78,2.82,1.19a103.108,103.108,0,1,1-41.4-8.68ZM546.44,545.1l86.72-35.89,33.59,81.16L769.19,548,735.6,466.82l86.73-35.9L933.92,700.55,700.41,797.19A137.3,137.3,0,0,0,640.34,772ZM507.91,826,468,728.2l48.27-29.7,35.74,89a139,139,0,0,0-44.1,38.5ZM454.65,695.41l-42.33-103.8,27.36-83.89L503.09,665.6Z"/>
    <path id="Path_10" data-name="Path 10" class="cls-1" d="M618.66,967.73a59.39,59.39,0,0,0,59.39-59.39c0-1.2,0-2.38-.11-3.56A59.42,59.42,0,0,0,618.66,849c-1.42,0-2.83.07-4.23.17a59.38,59.38,0,0,0,4.23,118.61Z"/>
  </g>
</svg>
