<svg xmlns="http://www.w3.org/2000/svg" width="945.998" height="611.049" viewBox="0 0 945.998 611.049">
  <defs>
    <style>
      .cls-1 {
        fill: indigo;
      }
    </style>
  </defs>
  <g id="icon_3-04" data-name="icon 3-04" transform="translate(-127.002 -306.944)">
    <path id="Path_35" data-name="Path 35" class="cls-1" d="M366.74,748.49a22.266,22.266,0,0,0-2.56.78c-55.31-10.69-88,48.11-80.37,98.8,6.95,46.16,57.1,82.38,102.36,65.86C461.49,886.44,462.71,737.23,366.74,748.49Zm15.19,120c-19.21,19.42-46.44,1.77-55.13-19.23a54.31,54.31,0,0,1,1.91-45.21c4.26-8.44,13.53-13.79,23.47-18.36a20.411,20.411,0,0,0,8.95,4.3c20,4.24,33.53,5.81,38.28,28.12,3.74,17.58-5.41,38.2-17.48,50.4Z"/>
    <path id="Path_36" data-name="Path 36" class="cls-1" d="M907.44,810.38c-5.36-22-19.34-45-37.59-58.4-13.55-10-37-15.17-51.53-5.33-16.46-2.29-34.83,5.8-47.62,16.05-20.31,16.27-29.36,39.07-31.92,64.39-5.32,52.73,40.13,98.82,92.9,89.28C881.91,907.29,920,861.74,907.44,810.38ZM831.18,870c-27.48,9.88-47-10.7-47.4-37.2-.43-26.86,21.08-36.63,40.49-48.1,6.53.09,13.55-1.47,18.41,2.47,9.28,7.53,14.24,20,18.09,30.86C869.3,842.26,854.42,861.64,831.18,870Z"/>
    <path id="Path_37" data-name="Path 37" class="cls-1" d="M1068.27,755.87c-5.08-23.66-27.63-22.61-27.25-51.91.59-45.72,10.88-102.41-16.46-142.44-21.27-31.14-78-26.36-111.12-16.82-25.06-61.12-51.36-155-98.33-199.89-38.76-37-87.34-32.42-138.12-31.64-97.19,1.5-194.45,4.76-291.65,4.29-65.65-.32-163.61-28-224.61,7.77-33.49,19.62-26.54,71.14-28.16,103-4.42,86.92,4.36,174.84-3.62,261.4-7.18,78,.77,176,106.23,140a6.64,6.64,0,0,0,2.67-2c2.79.22,5.64-.35,7.61-2.52,8.18-9,10.24-18.22,13.33-30.14,8.83-34.05,26.62-53.89,60.87-64.68,64.58-20.36,139.62,15.19,156.54,80.91a13.549,13.549,0,0,0,1.73,3.54c-.52,4.89,2.42,10.21,8.43,9.82C555.21,820,622.57,820,689.8,838c8.85,2.38,14.68-4.21,15.56-11.25a6.91,6.91,0,0,0,2.27-3.78c11.39-56.65,38.81-92.18,96.7-106.14,35.41-8.53,70.6.75,97.4,24.92,23.87,21.51,21.15,60.08,35.61,86.79,4.4,8.14,14.51,7.77,20.21,2.49a13.728,13.728,0,0,0,2.28.69c23.91,2.34,102.1,11.08,110.92-21C1075.43,793.74,1071.92,772.83,1068.27,755.87ZM648.48,381.52c43.89-2.42,93.71-4.86,127.71,26.19,26.1,23.83,40.07,67.82,55.79,99.25,17.41,34.81-63.28,16.52-87,16-32-.75-63.25.92-94.38,6C647.61,479.57,645.6,430.31,648.48,381.52Z"/>
  </g>
</svg>
